<?xml version="1.0" encoding="UTF-8"?>
<svg version="1.1" viewBox="0 0 2048 2048" width="1280" height="1280" xmlns="http://www.w3.org/2000/svg">
<path transform="translate(0)" d="m0 0h2048v2048h-2048z"/>
<path transform="translate(1065,398)" d="m0 0h9l10 2 10 4 12 9 7 10 5 12 2 10v23l-5 19-5 12-10 16-9 11-15 15-16 11-23 12-9 5h7l47-8 54-7 66-7 37-2h53l8-13 13-23 10-15 10-13 12-14 20-20 11-9 10-5 7 2 6 5 6 10 5 14 2 11v15l-4 16-8 16-11 13-13 10-15 8-6 2 3 2 23 6 28 11 41 18 30 13 8 4 8-1 26-7 13-7 16-13 15-10 10-5 11-3 12 2 7 5 3 5v7l-5 9-5 7 17 9 8 7 5 10v14l-4 11-5 9-9 13-11 12-7 7-10 7-10 5-13 3-3 7-4 6-9 9-24 16-10 6-9 3h-12l-5-1-13 8-8 3h-3l7 9 12 12 5 6 14 11 18 13 20 14 10 6 16 7 15 4 7 1h12l12-2 13-5 11-7 10-9 9-14 6-16 1-5v-19l-3-9-7-12-8-6-9-3h-8l-9 4-7 6-6 10-1 3v14l5 8 5 4 5 2 8-1 5-4 7-14 4 1 3 3 1 3v7l-5 10-8 7-9 3h-9l-10-3-8-6-6-7-4-8-1-4v-17l5-12 8-11 8-7 11-5 10-2h8l10 2 10 6 7 6 7 11 5 13 1 5v16l-3 15-6 16-7 12-11 12-7 6-15 9-13 5-14 3h-13l-17-3-17-6 3 5 9 9 7 8 12 14 10 11 9 11 13 14 7 8 15 15 11 9 12 10 14 9 13 6 6 2h14l10-5 8-9 5-12 1-5v-12l-3-8-6-7-5-2h-9l-6 4-5 6-1 2v8l5 8-1 5-1 1h-7l-8-7-3-9 1-10 5-10 6-7 8-5 6-2h13l10 4 9 8 6 12 1 4v19l-3 11-6 12-9 10-7 6-10 4-5 1h-16l-11-3-16-8-16-11-11-8-3-1 10 14 8 9 8 7 14 10 16 8 21 6 39 8 21 7 16 8 14 11 11 12 9 14 9 20 4 12 1 6v23l-5 3h-46l-16-3-19-7-9-4 9 17 8 21 5 21 1 12v11l-3 16-5 14-7 13-10 13-12 11-11 6-9 3h-12l-5-5-2-6-6-38-5-33-2-22-1-76-1-25-3-21-5-19-6-16-7-12-8-10-10-11-7-8-12-12-7-8-28-28 3 9 10 25 7 19 10 33 8 31 7 35 5 36 3 29 1 16v90l8 16 6 9 7 8 14 11 16 9 14 6 17 5 7 1h16l16-3 13-5 13-9 9-13 2-6-1-8-4-5-2-1h-9l-6 4-3 5-1 5 6 2 4 2 1 5-5 5-9-1-6-4-4-7v-12l6-10 9-6 4-1h12l9 4 5 5 4 6 1 3v11l-5 12-9 12-9 8-10 6-15 5-26 3 28 16 11 9 9 9 5 8 5 14 2 8v25l-4 20-4 10-5 5-6 2-16-5-27-10-25-12-15-9-14-10-11-10-7-6-10-13-9-16-7-14-1 1v35l2 24 5 27 8 27 8 18 9 17 10 14 11 12 8 6 8 4 7 2 8-1 9-5 5-5 5-8 3-10v-9l-5-10-4-3-7 1-4 5v9l3 7-1 4-7 1-7-6-2-4v-11l4-8 7-8 8-4 10 1 9 6 6 8 3 9v14l-4 12-6 11-8 9-10 6-6 2h-15l-13-5-13-9-14-14-10-15-12-23-9-24-8-30-2-10h-1l-4 26-3 30v17l2 27 4 18 5 14 9 17 10 15 11 18 2 2 4 1h21l16-5 19-9 16-8 10-4 5-1h7l11 4 8 7 6 12v15l-4 12-9 15-10 14-11 16-8 12 1 5 5 8 3 10-2 10-7 9-8 8-10 7-22 13-10 5-11 2-11-2-2 4-7 6-10 4h-21l-32-10-15-3-19-3-13-5-6-4-6-7-2-5v-9l3-9 7-12 10-11 8-7 11-10 11-9 9-9 11-14 8-13-2-12-7-33-4-30-1-18v-25l2-33 4-32 12-78-1-3-4 9-8 22-12 26-11 23-3 11-12 72-9 41-8 30-8 21-17 35-8 16-10 21-10 26-13 38-7 16-8 14-10 13-9 10-10 6-11 3h-17l-25-4-24-6-16-6-7-6-1-2v-6l7-7 16-10 20-14 16-12 18-13 19-14 18-13 14-11 15-13 19-19 11-14 10-15 10-18 9-22 1-6-6 5-9 11-19 19-13 10-13 8-16 8-13 5-21 5-9 1h-20l-5 4-10 13-8 15-3 11v13l4 6 9 2 8-4 5-8 1-3v-8h-5l-5 6-3 2-4-1-2-2 1-7 5-8 6-4 6-1 7 3 5 6 2 5v9l-4 10-8 10-7 6-6 2h-13l-7-4-5-5-4-6-2-7v-8l4-18-7 4-9 8-10 8-7 7-7 14-2 7v14l4 8v2l5 2h7l3-1 2-5 1-3v-9l-12-3-1-5 6-5h10l6 4 4 6 1 4v8l-4 10-9 10-8 3h-8l-8-3-7-6-6-12-2-10 1-13 5-16-1-1-12 9-18 14-17 14-14 12-10 9-8 7-8 8-9 11-12 17-8 15-7 20-3 17v15l3 15 5 12 6 8 7 7 14 7 4 1h17l14-5 12-8 7-6 10-14 7-15 1-4v-10l-3-10-4-5-5-3-4-1h-11l-8 4-5 4-4 7-2 7-1 10-2 3-4 1-5-4-1-2v-16l4-9 7-8 6-5 8-4 7-2h14l11 4 8 7 6 9 3 12v10l-4 16-9 17-9 11-8 8-14 9-11 5-12 3h-15l-12-3-15-8-12-11-7-11-5-12-3-11-1-6v-23l5-22 6-15 7-14 11-16 12-14 11-11h-3l-16 9-14 9-20 12-14 9-5 4-4 6-9 25-11 44-7 29-9 27-6 15-6 9-4 2h-11l-9-4-9-7-9-10-8-15-5-17-2-16 1-18 4-15 8-16 8-11 9-10 7-7 13-10 8-6h-47l-57-4h-31l-10 3-9 7-6 8-3 10v9l4 11 7 9 8 6 8 3h14l10-5 4-6 1-3v-7l-2-4-4-2h-20l-2-2v-5l6-5 6-3h9l8 3 5 4 5 8 2 7-1 9-6 11-7 7-10 5-3 1h-19l-12-5-10-8-7-8-6-13-1-4v-18l8-16 11-11 14-7 8-2h32l47 3h36l26-3 24-5 29-8 20-7 25-11v-1l-39 9-36 6-19 2-16 1h-48l-34-3-34-4-39-6-9-1h-23l-7 3-14 11-7 7-11 14-12 19-10 18-25 50-10 15-11 12-10 8-15 8-19 5-9 1h-12l-10-3-6-7-1-4v-7l7-28 14-48 8-16 8-11 8-9 8-7 14-10 16-9h2v-2h-64l-37-1h-39l-11 16-10 17-23 46-11 19-8 10-8 7-2 1h-9l-9-6-9-10-12-16-12-13-8-9-7-14-2-10v-12l2-17-16-8-9-8-7-11-3-12 2-9 6-8 10-7 37-18 4-4-6-12-1-8 7-14 13-18 9-10 8-5h11l9 4 6 4 7 7 10 16 8 16 12 28 8 15 7 9 40 15 20 6 26 5 24 3 15 1h25l45-3 24-2 2-1-41-12-24-8-24-10-24-11-25-13-25-15-27-18-19-14-14-11-11-9-12-11-8-7-7-7-13-9-19-9-15-5-16-3-9-1h-15l-17 3-16 6-10 6-10 8-6 8-3 8v11l4 9 5 6 10 5h9l8-7 1-9-2-4-2-1h-8l-6 2-2-2 1-7 7-4 9 1 6 4 6 7 1 3v7l-4 9-7 8-5 3-4 1h-12l-12-6-7-6-6-10-3-10v-12l4-11 8-11 8-8 13-8 4-4-15-1-22-4-20-7-15-8-10-8-7-8-6-12-2-8v-10l3-6 5-4h22l30 2 26 4 20 5 21 8 13 6h3l-11-16-14-20-12-17-14-19-9-11-11-12-14-14-16-11-14-7-9-3-6-1h-17l-10 3-11 7-6 8-5 12-1 6v8l2 10 6 12 9 9 10 4 8-1 6-4 6-7 2-5v-11l-4-8-3-2h-7l-6 1-3-4 1-5 5-4 6-2 8 1 8 4 7 10 2 6v16l-5 12-10 11-8 4-9 2-12-1-13-7-9-8-5-7-5-12-2-10v-20l4-12 7-12 9-10 11-7 12-4 6-1h18l16 4 16 7 11 7 10 8 10 9 2 1-7-14-12-17-7-9-9-10-7-8-10-11-10-8-2-1h-10l-23 6-40 12-22 5h-25l-15-4-11-5-10-6-10-9-7-9-6-13-2-7v-14l4-6 8-4 10-2 59-6h23l19 3 7 2-3-5-12-14-11-13-8-10-12-14-8-8-15-9-11-5-17-4-31-4-13-4-10-6-8-8-3-7v-8l4-10 9-13 9-10 12-9 15-10-4-12v-6l4-6 8-8 16-10 23-11 20-6 42-9 9 3 6 7 2 9h18l14 5 8 6 6 7 5 10 1 4v10l-5 10-14 14-28 22-10 9-5 5-8 9-8 13-1 5 10 25 11 28 15 33 2 5h2l-3-13-1-12v-25l4-16 5-10 11-12 9-6 9-3 8-1v-21l1-35 3-35 4-30 7-33 7-32 2-14v-22l-3-19-6-20-7-13-6-7-10-6-8-3-13-1-13 3-13 7-10 9-8 14-4 12-1 5v13l3 10 6 10 8 6 9 4 11 1 9-3 9-6 6-10 3-8v-11l-4-8-5-4-7-1-8 4-6 5-7-1-2-5 3-7 4-5 9-5 4-1h10l10 4 6 5 6 10 2 7v13l-4 13-6 11-9 10-10 6-10 3h-13l-12-4-11-6-9-8-7-11-4-12-1-7v-11l4-16 7-14 8-11 10-10 11-7 14-5 7-1h17l12 3 11 6 10 9 9 14 10 25 10-24 5-15 3-14 1-8v-14l-4-16-6-10-6-5-5-2-6 1-5 6-1 2v10l3 2 7-1 3-2 5 1 1 5-4 6-5 3h-8l-7-4-5-6-2-6v-9l6-11 8-7 5-2h10l10 4 8 7 6 10 3 7 2 11 1 11v14l-1 6h2l2-5 8-11 10-14 11-14 11-13 7-9 4-15 1-5v-27l-4-20-5-12-7-11-9-8-10-4h-17l-9 4-8 6-7 8-5 12-1 4v16l5 10 7 6 5 2h7l8-5 7-8 4-10v-8l-4-6-7-1-8 7-6 1-4-5 1-6 7-8 6-3h12l8 4 5 6 4 10v8l-3 11-6 11-10 10-8 4-3 1h-12l-10-4-10-8-6-9-4-10-1-6v-9l3-13 6-12 8-10 11-9 11-5 8-2h17l12 4 11 8 9 10 8 16 5 17 3 16 3-6 1-8v-33l-3-25-9-55-1-9v-32l3-19 6-25 6-18 5-8 7 1 11 7 13 11 8 7 10 10 9 11 9 13 10 19 6 18 2 11v24l-5 16-9 19-10 15-12 16-13 17-6 10 8-6 16-16 9-11 10-11 13-17 10-13 13-18 16-23 13-19 6-10 8-24 3-16 1-10v-9l-2-14-5-13-8-9-7-3h-8l-8 4-6 7-4 9v15l5 10 8 7h9l4-4 2-4v-9l-3-3h-12l-3-3 1-7 5-5 3-1h8l8 4 6 9 1 5v12l-4 10-4 5-8 5-10 1-9-2-10-7-6-7-5-11-2-16 2-11 7-13 10-10 8-4 4-1h13l10 4 8 7 6 9 5 14 2 12v23l-2 12-1 2 5-4 10-14 10-13 12-14 10-11 7-8 12-14 12-12-2-6-8-10-12-13-18-18-10-13-3-7v-10l4-6 8-6 9-4 11-2h20l13 3 15 8 4 2 11-8 2-1h10l10 6 15 14 6 8 3 7v7l-1 5 5 2 26 14 10 8 6 9 3 11v12l-3 14-5 10-9 10-9 4-4 1h-11l-14-4-39-22-10-5-5 1-21 10-18 11-14 11-13 12-12 13-3 5 19-8 16-4 8-1h22l17 3 19 7 14 7 16 11 11-2 15-5 13-8 22-15 20-14 13-11 8-7 9-12 5-12 1-5v-12l-4-7-3-2h-6l-4 6-3 7-3 2-5-1-2-4v-8l5-8 6-5 5-2h8l10 5 7 9 2 6v12l-5 16-5 10-10 13-13 12-10 8h7l38-12 20-9 18-10 12-9 10-9 10-10 10-15 7-15 3-11 1-7v-11l-2-10-7-14-7-7-9-4-4-1h-17l-10 4-9 7-5 7-4 11-1 10 2 11 6 12 7 6 6 1 7-3 7-5 6-12 1-6-3-6-1-1h-6l-7 6h-6l-4-5 2-7 5-6 8-4h10l9 4 6 8 2 5v15l-4 11-8 11-10 8-7 3-5 1h-9l-10-4-9-7-6-8-5-12-2-10v-14l4-13 6-11 9-10 10-7 12-5z"/>
<path transform="translate(1065,398)" d="m0 0h9l10 2 10 4 12 9 7 10 5 12 2 10v23l-5 19-5 12-10 16-9 11-15 15-16 11-23 12-9 5h7l47-8 54-7 66-7 37-2h53l8-13 13-23 10-15 10-13 12-14 20-20 11-9 10-5 7 2 6 5 6 10 5 14 2 11v15l-4 16-8 16-11 13-13 10-15 8-6 2 3 2 23 6 28 11 41 18 30 13 8 4 8-1 26-7 13-7 16-13 15-10 10-5 11-3 12 2 7 5 3 5v7l-5 9-5 7 17 9 8 7 5 10v14l-4 11-5 9-9 13-11 12-7 7-10 7-10 5-13 3-3 7-4 6-9 9-24 16-10 6-9 3h-12l-5-1-13 8-8 3h-3l7 9 12 12 5 6 14 11 18 13 20 14 10 6 16 7 15 4 7 1h12l12-2 13-5 11-7 10-9 9-14 6-16 1-5v-19l-3-9-7-12-8-6-9-3h-8l-9 4-7 6-6 10-1 3v14l5 8 5 4 5 2 8-1 5-4 7-14 4 1 3 3 1 3v7l-5 10-8 7-9 3h-9l-10-3-8-6-6-7-4-8-1-4v-17l5-12 8-11 8-7 11-5 10-2h8l10 2 10 6 7 6 7 11 5 13 1 5v16l-3 15-6 16-7 12-11 12-7 6-15 9-13 5-14 3h-13l-17-3-17-6 3 5 9 9 7 8 12 14 10 11 9 11 13 14 7 8 15 15 11 9 12 10 14 9 13 6 6 2h14l10-5 8-9 5-12 1-5v-12l-3-8-6-7-5-2h-9l-6 4-5 6-1 2v8l5 8-1 5-1 1h-7l-8-7-3-9 1-10 5-10 6-7 8-5 6-2h13l10 4 9 8 6 12 1 4v19l-3 11-6 12-9 10-7 6-10 4-5 1h-16l-11-3-16-8-16-11-11-8-3-1 10 14 8 9 8 7 14 10 16 8 21 6 39 8 21 7 16 8 14 11 11 12 9 14 9 20 4 12 1 6v23l-5 3h-46l-16-3-19-7-9-4 9 17 8 21 5 21 1 12v11l-3 16-5 14-7 13-10 13-12 11-11 6-9 3h-12l-5-5-2-6-6-38-5-33-2-22-1-76-1-25-3-21-5-19-6-16-7-12-8-10-10-11-7-8-12-12-7-8-28-28 3 9 10 25 7 19 10 33 8 31 7 35 5 36 3 29 1 16v90l8 16 6 9 7 8 14 11 16 9 14 6 17 5 7 1h16l16-3 13-5 13-9 9-13 2-6-1-8-4-5-2-1h-9l-6 4-3 5-1 5 6 2 4 2 1 5-5 5-9-1-6-4-4-7v-12l6-10 9-6 4-1h12l9 4 5 5 4 6 1 3v11l-5 12-9 12-9 8-10 6-15 5-26 3 28 16 11 9 9 9 5 8 5 14 2 8v25l-4 20-4 10-5 5-6 2-16-5-27-10-25-12-15-9-14-10-11-10-7-6-10-13-9-16-7-14-1 1v35l2 24 5 27 8 27 8 18 9 17 10 14 11 12 8 6 8 4 7 2 8-1 9-5 5-5 5-8 3-10v-9l-5-10-4-3-7 1-4 5v9l3 7-1 4-7 1-7-6-2-4v-11l4-8 7-8 8-4 10 1 9 6 6 8 3 9v14l-4 12-6 11-8 9-10 6-6 2h-15l-13-5-13-9-14-14-10-15-12-23-9-24-8-30-2-10h-1l-4 26-3 30v17l2 27 4 18 5 14 9 17 10 15 11 18 2 2 4 1h21l16-5 19-9 16-8 10-4 5-1h7l11 4 8 7 6 12v15l-4 12-9 15-10 14-11 16-8 12 1 5 5 8 3 10-2 10-7 9-8 8-10 7-22 13-10 5-11 2-11-2-2 4-7 6-10 4h-21l-32-10-15-3-19-3-13-5-6-4-6-7-2-5v-9l3-9 7-12 10-11 8-7 11-10 11-9 9-9 11-14 8-13-2-12-7-33-4-30-1-18v-25l2-33 4-32 12-78-1-3-4 9-8 22-12 26-11 23-3 11-12 72-9 41-8 30-8 21-17 35-8 16-10 21-10 26-13 38-7 16-8 14-10 13-9 10-10 6-11 3h-17l-25-4-24-6-16-6-7-6-1-2v-6l7-7 16-10 20-14 16-12 18-13 19-14 18-13 14-11 15-13 19-19 11-14 10-15 10-18 9-22 1-6-6 5-9 11-19 19-13 10-13 8-16 8-13 5-21 5-9 1h-20l-5 4-10 13-8 15-3 11v13l4 6 9 2 8-4 5-8 1-3v-8h-5l-5 6-3 2-4-1-2-2 1-7 5-8 6-4 6-1 7 3 5 6 2 5v9l-4 10-8 10-7 6-6 2h-13l-7-4-5-5-4-6-2-7v-8l4-18-7 4-9 8-10 8-7 7-7 14-2 7v14l4 8v2l5 2h7l3-1 2-5 1-3v-9l-12-3-1-5 6-5h10l6 4 4 6 1 4v8l-4 10-9 10-8 3h-8l-8-3-7-6-6-12-2-10 1-13 5-16-1-1-12 9-18 14-17 14-14 12-10 9-8 7-8 8-9 11-12 17-8 15-7 20-3 17v15l3 15 5 12 6 8 7 7 14 7 4 1h17l14-5 12-8 7-6 10-14 7-15 1-4v-10l-3-10-4-5-5-3-4-1h-11l-8 4-5 4-4 7-2 7-1 10-2 3-4 1-5-4-1-2v-16l4-9 7-8 6-5 8-4 7-2h14l11 4 8 7 6 9 3 12v10l-4 16-9 17-9 11-8 8-14 9-11 5-12 3h-15l-12-3-15-8-12-11-7-11-5-12-3-11-1-6v-23l5-22 6-15 7-14 11-16 12-14 11-11h-3l-16 9-14 9-20 12-14 9-5 4-4 6-9 25-11 44-7 29-9 27-6 15-6 9-4 2h-11l-9-4-9-7-9-10-8-15-5-17-2-16 1-18 4-15 8-16 8-11 9-10 7-7 13-10 8-6h-47l-57-4h-31l-10 3-9 7-6 8-3 10v9l4 11 7 9 8 6 8 3h14l10-5 4-6 1-3v-7l-2-4-4-2h-20l-2-2v-5l6-5 6-3h9l8 3 5 4 5 8 2 7-1 9-6 11-7 7-10 5-3 1h-19l-12-5-10-8-7-8-6-13-1-4v-18l8-16 11-11 14-7 8-2h32l47 3h36l26-3 24-5 29-8 20-7 25-11v-1l-39 9-36 6-19 2-16 1h-48l-34-3-34-4-39-6-9-1h-23l-7 3-14 11-7 7-11 14-12 19-10 18-25 50-10 15-11 12-10 8-15 8-19 5-9 1h-12l-10-3-6-7-1-4v-7l7-28 14-48 8-16 8-11 8-9 8-7 14-10 16-9h2v-2h-64l-37-1h-39l-11 16-10 17-23 46-11 19-8 10-8 7-2 1h-9l-9-6-9-10-12-16-12-13-8-9-7-14-2-10v-12l2-17-16-8-9-8-7-11-3-12 2-9 6-8 10-7 37-18 4-4-6-12-1-8 7-14 13-18 9-10 8-5h11l9 4 6 4 7 7 10 16 8 16 12 28 8 15 7 9 40 15 20 6 26 5 24 3 15 1h25l45-3 24-2 2-1-41-12-24-8-24-10-24-11-25-13-25-15-27-18-19-14-14-11-11-9-12-11-8-7-7-7-13-9-19-9-15-5-16-3-9-1h-15l-17 3-16 6-10 6-10 8-6 8-3 8v11l4 9 5 6 10 5h9l8-7 1-9-2-4-2-1h-8l-6 2-2-2 1-7 7-4 9 1 6 4 6 7 1 3v7l-4 9-7 8-5 3-4 1h-12l-12-6-7-6-6-10-3-10v-12l4-11 8-11 8-8 13-8 4-4-15-1-22-4-20-7-15-8-10-8-7-8-6-12-2-8v-10l3-6 5-4h22l30 2 26 4 20 5 21 8 13 6h3l-11-16-14-20-12-17-14-19-9-11-11-12-14-14-16-11-14-7-9-3-6-1h-17l-10 3-11 7-6 8-5 12-1 6v8l2 10 6 12 9 9 10 4 8-1 6-4 6-7 2-5v-11l-4-8-3-2h-7l-6 1-3-4 1-5 5-4 6-2 8 1 8 4 7 10 2 6v16l-5 12-10 11-8 4-9 2-12-1-13-7-9-8-5-7-5-12-2-10v-20l4-12 7-12 9-10 11-7 12-4 6-1h18l16 4 16 7 11 7 10 8 10 9 2 1-7-14-12-17-7-9-9-10-7-8-10-11-10-8-2-1h-10l-23 6-40 12-22 5h-25l-15-4-11-5-10-6-10-9-7-9-6-13-2-7v-14l4-6 8-4 10-2 59-6h23l19 3 7 2-3-5-12-14-11-13-8-10-12-14-8-8-15-9-11-5-17-4-31-4-13-4-10-6-8-8-3-7v-8l4-10 9-13 9-10 12-9 15-10-4-12v-6l4-6 8-8 16-10 23-11 20-6 42-9 9 3 6 7 2 9h18l14 5 8 6 6 7 5 10 1 4v10l-5 10-14 14-28 22-10 9-5 5-8 9-8 13-1 5 10 25 11 28 15 33 2 5h2l-3-13-1-12v-25l4-16 5-10 11-12 9-6 9-3 8-1v-21l1-35 3-35 4-30 7-33 7-32 2-14v-22l-3-19-6-20-7-13-6-7-10-6-8-3-13-1-13 3-13 7-10 9-8 14-4 12-1 5v13l3 10 6 10 8 6 9 4 11 1 9-3 9-6 6-10 3-8v-11l-4-8-5-4-7-1-8 4-6 5-7-1-2-5 3-7 4-5 9-5 4-1h10l10 4 6 5 6 10 2 7v13l-4 13-6 11-9 10-10 6-10 3h-13l-12-4-11-6-9-8-7-11-4-12-1-7v-11l4-16 7-14 8-11 10-10 11-7 14-5 7-1h17l12 3 11 6 10 9 9 14 10 25 10-24 5-15 3-14 1-8v-14l-4-16-6-10-6-5-5-2-6 1-5 6-1 2v10l3 2 7-1 3-2 5 1 1 5-4 6-5 3h-8l-7-4-5-6-2-6v-9l6-11 8-7 5-2h10l10 4 8 7 6 10 3 7 2 11 1 11v14l-1 6h2l2-5 8-11 10-14 11-14 11-13 7-9 4-15 1-5v-27l-4-20-5-12-7-11-9-8-10-4h-17l-9 4-8 6-7 8-5 12-1 4v16l5 10 7 6 5 2h7l8-5 7-8 4-10v-8l-4-6-7-1-8 7-6 1-4-5 1-6 7-8 6-3h12l8 4 5 6 4 10v8l-3 11-6 11-10 10-8 4-3 1h-12l-10-4-10-8-6-9-4-10-1-6v-9l3-13 6-12 8-10 11-9 11-5 8-2h17l12 4 11 8 9 10 8 16 5 17 3 16 3-6 1-8v-33l-3-25-9-55-1-9v-32l3-19 6-25 6-18 5-8 7 1 11 7 13 11 8 7 10 10 9 11 9 13 10 19 6 18 2 11v24l-5 16-9 19-10 15-12 16-13 17-6 10 8-6 16-16 9-11 10-11 13-17 10-13 13-18 16-23 13-19 6-10 8-24 3-16 1-10v-9l-2-14-5-13-8-9-7-3h-8l-8 4-6 7-4 9v15l5 10 8 7h9l4-4 2-4v-9l-3-3h-12l-3-3 1-7 5-5 3-1h8l8 4 6 9 1 5v12l-4 10-4 5-8 5-10 1-9-2-10-7-6-7-5-11-2-16 2-11 7-13 10-10 8-4 4-1h13l10 4 8 7 6 9 5 14 2 12v23l-2 12-1 2 5-4 10-14 10-13 12-14 10-11 7-8 12-14 12-12-2-6-8-10-12-13-18-18-10-13-3-7v-10l4-6 8-6 9-4 11-2h20l13 3 15 8 4 2 11-8 2-1h10l10 6 15 14 6 8 3 7v7l-1 5 5 2 26 14 10 8 6 9 3 11v12l-3 14-5 10-9 10-9 4-4 1h-11l-14-4-39-22-10-5-5 1-21 10-18 11-14 11-13 12-12 13-3 5 19-8 16-4 8-1h22l17 3 19 7 14 7 16 11 11-2 15-5 13-8 22-15 20-14 13-11 8-7 9-12 5-12 1-5v-12l-4-7-3-2h-6l-4 6-3 7-3 2-5-1-2-4v-8l5-8 6-5 5-2h8l10 5 7 9 2 6v12l-5 16-5 10-10 13-13 12-10 8h7l38-12 20-9 18-10 12-9 10-9 10-10 10-15 7-15 3-11 1-7v-11l-2-10-7-14-7-7-9-4-4-1h-17l-10 4-9 7-5 7-4 11-1 10 2 11 6 12 7 6 6 1 7-3 7-5 6-12 1-6-3-6-1-1h-6l-7 6h-6l-4-5 2-7 5-6 8-4h10l9 4 6 8 2 5v15l-4 11-8 11-10 8-7 3-5 1h-9l-10-4-9-7-6-8-5-12-2-10v-14l4-13 6-11 9-10 10-7 12-5zm-55 207-32 2-38 5-31 6-27 7-30 9-40 14-27 11-24 11-23 12-23 14-23 16-21 16-14 11-26 22-11 10-8 7-11 10-8 7-7 7-8 7-37 37-7 8-14 17-9 12-12 17-11 17-9 15-9 19-8 21-11 41-14 54-4 25-3 34-1 45 1 34 3 36 5 38 3 13 4-4 7-8 10-7 9-4 10-2h22l12 3 12 6 8 7 8 16 1 4v24l-4 17-2 6-25 1-4 6-2 7v9l4 8 8 6 8 3h23l11-4 5-4 6-10 3-9 3-22 2-32v-356h-49v-11h390l49 1 30 3 28 5 23 6 25 9 16 8 14 8 16 12 12 11 11 13 9 14 11 23 7 22 5 22 3 20 2 30v28l-2 30-5 29-5 20-7 20-9 19-10 16-11 14-13 13-15 11-15 9-15 8-25 10-27 8-29 6-23 3-26 2-213 1v-12h43l1-431-40-1-30 1-1 304-3 27-5 23-8 22-9 16-8 11-8 9-16 12-11 6-15 7-19 6-15 3-18 2h-43l-25-4-16-5-12-5-4-1 1 5 14 30 15 30 13 23 15 25 15 22 14 19 11 14 8 10 9 10 7 8 12 13 25 25 8 7 14 12 16 13 18 13 19 13 28 17 27 14 25 12 28 11 30 10 38 10 47 9 46 7 36 4 28 2h29l39-2 31-4 25-5 23-6 26-9 26-11 29-14 20-10 23-13 22-13 17-11 12-8 14-10 21-16 16-13 11-10 8-7 34-34 9-11 11-13 11-14 14-19 12-17 13-21 14-24 14-27 9-20 10-26 10-31 7-28 5-28 4-30 2-22 1-31v-18l-1-36-3-32-6-40-7-34-9-34-12-36-11-28-13-30-10-19-13-24-13-21-11-16-14-19-13-16-12-14-8-8-7-8-13-13-8-7-13-12-11-9-16-13-19-14-27-18-13-8-21-12-29-15-29-13-27-10-30-10-35-9-36-7-37-5-23-2-20-1z" fill="#00BC67"/>
<path transform="translate(1234,941)" d="m0 0h155l29 1 31 3 22 4 19 5 14 5 16 8 13 9 12 12 7 11 6 15 4 20v30l-4 18-7 17-8 12-9 10-14 11-12 7-14 6-23 7-16 4 26 4 20 5 19 7 21 11 13 10 10 10 10 15 6 15 4 18 1 7v28l-4 20-6 17-8 15-12 14-12 10-18 10-15 6-18 6-26 6-29 4-26 2-47 1-177-1v-12h42v-405l1-26h-42l-1-1v-10z" fill="#00BD68"/>
<path transform="translate(1e3 36)" d="m0 0h8l8 4 6 8 1 3v7l-3 6-4 5-6 3 1 6 10 28 14 43 5 14 8 14 9 10 10 9 13 8 15 6 13 3 8 1h16l18-3 19-7 15-9 10-9 10-13 14-22 27-40 5-7-6-5-3-7v-8l4-8 5-4 4-2h10l7 4 4 5 3 8-1 6-5 8-6 4-9 1h-2l-2 9-11 41-25 99-19 73-4 10-12-1-43-8-42-6-43-4-17-1h-63l-43 3-37 4-43 7-26 5h-12l-9-32-14-54-17-67-9-36-10-36-2-6-10-1-6-4-4-6-1-3v-9l5-8 5-4 3-1h10l8 5 5 8v10l-4 7-5 4 14 19 25 38 13 19 9 10 8 7 14 8 16 6 13 3h28l17-4 16-7 14-9 11-10 9-13 6-12 21-64 8-21v-2l-8-4-4-5-2-5v-8l5-8 6-5z" fill="#00BD68"/>
<path transform="translate(902,953)" d="m0 0h29l22 2 20 4 16 6 11 6 12 11 9 12 9 17 9 27 5 24 4 34 1 15v103l-2 29-4 30-5 23-5 17-8 18-7 12-9 11-8 8-14 9-15 7-16 4-16 2h-38l-1-134v-154z"/>
<path transform="translate(1357,1165)" d="m0 0 35 2 14 3 13 5 11 8 7 8 8 16 5 19 1 9v70l-2 19-4 18-7 16-6 9-10 9-13 6-12 2h-41v-218z"/>
<path transform="translate(1356,953)" d="m0 0h28l14 2 12 5 8 6 6 9 5 13 3 16 1 9 1 20v42l-2 25-4 18-5 12-7 10-9 7-13 5-10 2h-28z"/>
<path transform="translate(563,556)" d="m0 0 5 2 13 12 8 7 12 12 13 17 9 16 6 15 3 11 1 16-2 12-6 16-8 15-14 21-14 20-7 9-2-1 6-25 2-15v-33l-3-20-6-21-2-4h-8l7 41 1 11v16l-3 24-4 20-5 16-3 3v-39l-4-28-7-41-2-18v-26l3-22 8-31z"/>
<path transform="translate(1228,559)" d="m0 0h39l18 1-2 9v15l5 16 10 19 12 20 10 21v2l-5-2-24-12-28-13-23-9v-3l12-5 9-7 6-9 4-9v-10l-5-10-10-6-7-2h-12l-8 4-6 7-3 7v7l4 8 2 1h9l3-2 1-5-5-2-1-1v-6l4-5 5-2 9 1 6 4 3 3 1 7-4 9-7 8-11 5-12 3h-10l-23-6-37-10-35-7-36-5-53-4-3-2 66-10 58-7 41-4z"/>
<path transform="translate(1632,1300)" d="m0 0 5 3 10 11 13 10 13 8 23 11 26 11 16 8 13 9 8 7 7 11 5 13 1 9v10l-2 14-3 14-3 1-25-9-26-11-19-10-15-10-10-8-16-16-9-14-8-16-3-11 3 1 13 20 11 12 11 9 16 10 18 10 4 2h5l1-5-5-5-15-10-18-11-13-12-7-8-9-14-14-36z"/>
<path transform="translate(855,1786)" d="m0 0 3 1-12 14-10 15-9 15-14 27-13 28-11 19-11 12-10 8-15 7-18 4-6 1h-9l-3-1v-8l10-36 12-37 9-17 9-11 11-10 17-12 15-9 3 1-15 14-8 10-9 16-12 23-7 15v5l6 2 3-5 10-19 10-16 9-14 8-10 8-8 13-9 16-8 16-6z"/>
<path transform="translate(1611,1651)" d="m0 0 3 1-14 43-7 23-1 4v7l5 1 2-6 10-23 10-27 3-10 2-1 4 11 15 56 5 22v15l-5 5-4 1h-20l-33-10-22-4-14-3-12-6-3-4v-10l6-11 9-10 8-8 14-11 10-9 8-7 9-10 10-17z"/>
<path transform="translate(1671,1023)" d="m0 0 24 8 30 7 24 6 15 6 10 5 12 9 9 9 9 13 10 19 7 21v6h-19l-23-1-18-4-14-6-16-10-12-11-3-4 1-2 26 14 16 8 5 1v-7l-5-2-15-9-19-12-12-9-12-11-10-11-7-10-12-19z"/>
<path transform="translate(1682,1079)" d="m0 0 3 3 6 16 5 21 5 37 4 35 1 6 7-1v-18l-3-40-2-17v-8l6 5 11 16 9 16 6 15 5 17 2 13v15l-3 16-5 12-8 13-9 10-12 9-8 4-6 1-2-7-7-46-3-29-1-17z"/>
<path transform="translate(1583,578)" d="m0 0 5 1 2 4-7 10-2 4v6l5 7 17 10 6 5 2 3v10l-5 12-7 11-8 10-10 10-14 9-8 4h-2l-8-16-6-9-9-8-14-8-17-8-1-2h38l17-2 14-3 3-2 1-5h-14l-15 2h-31l-15-5-6-5v-2l15-4 15-3 13-7 17-14 14-9 11-5z"/>
<path transform="translate(1352,570)" d="m0 0 9 2 16 7 11 8 10 10 7 8 24 28 11 10 13 9 3 2-1 4-10 14-8 6-16 8-21 11-8 7-1 2-5-2-22-15v-3l9-23 4-15 2-15-1-14-4-14-8-16-8-10-6-7z"/>
<path transform="translate(617,1785)" d="m0 0h3l-2 4-10 10-8 7-18 18-1 4 4 2 9-6 13-12 10-9 9-7 3 1-10 16-8 17-8 16-12 23-10 15-7 7-4-1-5-5-7-8-8-11-9-10-13-13-5-7-3-9-1-9v-11l1-9h9l16 2h12l20-3 25-7z"/>
<path transform="translate(339,1064)" d="m0 0h5l3 5v16l-5 16-11 26-8 19-5 18-4 21-3 3-2-6-7-54-3-24-2-5-5-1-3 1v9l6 60-1 3-4-5-12-27-9-19-6-8-6-3-6 1-9 4h-3l-1-5v-7l9-8 19-11 18-8 17-4 32-6z"/>
<path transform="translate(291,1298)" d="m0 0h28l18 3 15 5 7 5v2l-19-3h-21l-16 2-10 4 1 4 1 1h51l21 4 13 5 2 1v2l-66 18-16 3h-21l-17-4-11-6-10-9-6-9-5-11-1-8 2-3 38-4z"/>
<path transform="translate(1119,1819)" d="m0 0v3l-12 9-7 7-11 14-8 13-7 15-6 18-1 8 1 4h8l4-6 12-28 7-12 9-12 6-7 3 1-10 40-8 40-6 19-6 16-6 12-3 1-11-7-7-7-7-11-5-13-3-16v-15l4-17 8-16 7-10 11-13 7-7 11-9 14-9z"/>
<path transform="translate(1474,1721)" d="m0 0 1 3-15 44-6 13-9 16-9 11-9 8-11 4h-19l-18-3-26-6-12-4v-2l30-20 22-15 36-26 19-14 8-5 2 1-7 8-19 19-8 7-13 12-6 5-3 4 1 5 2 1 6-4 13-11 11-9 16-15 9-10 9-12z"/>
<path transform="translate(571,1654)" d="m0 0 8 2 10 9 7 10 7 12 13 29 8 17 5 9v2l-4-2-13-12-9-11-14-15-5-1-2 1 1 5 7 11 11 13 4 5 11 9 10 8v1l-38-1-12-6-7-8-4-11-3-10-7-8-10-10-3-5v-6l6-11 14-19 6-6z"/>
<path transform="translate(1631,1647)" d="m0 0 3 1 14 29 13 22 9 14 7 9 2 2 7 1-3-9-14-25-13-24-5-8 1-2 15 12 18 13 17 12 11 9 8 9 3 6-1 6-7 9-14 10-19 11-10 5-9 2-5-1-4-16-6-28-10-36-7-22z"/>
<path transform="translate(252,1117)" d="m0 0 4 1 8 16 15 33 7 12 10 15v2l-4-2-8-8-14-11-12-9-12-7h-6l-2 4v2l4 2 13 10 14 10 9 8 11 9 2 4-6-2-14-7-11-3-7-1-20-1-18-3-9-4-6-4-5-6 1-9 8-14 8-9 17-13 21-14z"/>
<path transform="translate(543,1718)" d="m0 0 4 2 6 12 5 13 8 11 7 7-4 1-40-6 1 5 25 6 24 4h34l3 2-10 4-24 7-20 4h-25l-16-3-14-5-10-7-5-6-4-9v-8l5-6 14-8 16-7 11-6z"/>
<path transform="translate(796,589)" d="m0 0h18l16 3 20 7 15 8 1 3-40 13-39 15-19 8-7 1-27-5-8-1h-16l5-5 14-8 19-7 19-3h32l3-3-1-4-9-3h-28l-19 4-9 2 2-4 17-10 18-7 14-3z"/>
<path transform="translate(394,1524)" d="m0 0h12l32 2 24 4 28 7 20 8 15 8 7 6-2 1-27-9-37-8-26-5h-5l-2 2v4l11 4 58 13 21 6 19 8 3 2v2l-21-1-45-1-21-2-18-4-15-6-12-7-10-9-7-11-3-9z"/>
<path transform="translate(1381,448)" d="m0 0h4l7 15 2 8v21l-3 11-7 14-11 12-10 7-15 6-8 2h-11l2-4 8-7 7-7 13-17 11-15v-6l-4 1-7 6-9 11-9 10-7 8-9 8-13 8-7 2 2-6 11-19 12-18 13-16 8-10h2l2-4 12-11z"/>
<path transform="translate(409,1206)" d="m0 0h6l1 2 2 23-6-2h-10l-8 6-3 6v8l3 8 7 8 8 5 14 3 2 5 8 41 3 21 4 13 8 17 6 17-1 3-10-12-14-19-12-15-14-20-10-19-7-21-3-21v-24l4-13 6-10 11-8z"/>
<path transform="translate(1314,566)" d="m0 0 9 3 14 10 10 9 9 12 5 10 3 9 1 7v9l-3 17-5 15-6 13-5-2-10-6-6-20-8-18-11-20-8-13-6-14-2-8v-12l5 2 10 10 11 14 12 14 5 2 3-2-1-6-9-14-9-11-8-8z"/>
<path transform="translate(887,467)" d="m0 0 11 7 17 12 9 8 3 5 1 4v17l-5 12-5 7-6 4-3 1h-12l-13-5-25-14-13-8-1-2 15-3 32-1 2-1v-5l-4-3-4-1h-25l-12 3h-6l5-5 24-16 9-8z"/>
<path transform="translate(1736,1600)" d="m0 0h9l6 4 5 8v10l-5 12-9 16-15 23-8 13-5-2-13-10-17-12-18-13-11-8-3-4 10 3 11 4 20 4 20 3h12l2-7v-2l-11-3-26-6-12-3v-2l21-9 28-15z"/>
<path transform="translate(1493,652)" d="m0 0 9 3 14 7 13 9 5 4 8 11 4 8 1 4v8l-5 7-14 10-21 12-11 5h-7l-3-1-3-9-1-8-1-42-1-16 1-2 4 2 16 28 8 12 3 2h3l-1-8-11-26-7-13-3-4z"/>
<path transform="translate(1458,674)" d="m0 0 1 4-6 18-10 33v7l2 3h2l7-19 8-21 5-10h2l1 35 3 15 2 5-1 4-21 9-8-4-10-9-11-9-15-13-12-9v-3l10-5 19-10 16-8 10-8z"/>
<path transform="translate(777,419)" d="m0 0h22l11 3 20 8-8 16-7 24-2 6-3-4-10-27-3-6h-4l1 9 7 23v5l-8-6-13-12-12-11-9-10-1-7 8-7z"/>
<path transform="translate(361,1078)" d="m0 0 13 2 11 4 9 8 5 10 1 3v8l-6 8-17 13-14 10-11 8-2-1 7-12 11-18 2-4v-5l-6-1-7 10-13 21-8 12-3 1 1-7 15-33 6-15 5-21z"/>
<path transform="translate(849,425)" d="m0 0 5 1 10 8 13 13 2 4v9l-6 9-9 8-14 10-13 10-6 3-1-3 15-35 2-4v-3h-5l-3 5-15 31-3 2-1-5 10-32 8-19 8-10z"/>
<path transform="translate(1495,1616)" d="m0 0 4 1-8 8-17 12-16 9-15 7-21 6-12 2h-8l6-7 15-13 14-12 8-6h24l17-4z"/>
<path transform="translate(708,651)" d="m0 0h20l15 2 3 2-17 10-25 15-25 17-16 12-6 2 2-5 13-16 12-17 9-12 6-7z"/>
<path transform="translate(1546,1499)" d="m0 0h2l-2 19-5 27-5 14-6 11-24-1-8-1 2-5 11-15 12-17 8-11 12-17z"/>
<path transform="translate(1490,1575)" d="m0 0 24 2 9 1v3l-11 11-11 8-16 8-16 4h-12l2-4 11-12 14-15z"/>
<path transform="translate(418,1235)" d="m0 0h1l2 19v8l-9-3-6-5-4-8 3-5 12-5z"/>
</svg>
